<svg width="40" height="40" viewBox="0 0 40 40" fill="none" xmlns="http://www.w3.org/2000/svg">
<g filter="url(#filter0_d_62_16)">
<path d="M5.87073 8.5954C6.2938 8.62992 6.80758 8.52635 7.44217 8.31923C7.74436 8.21567 7.92562 8.14662 8.04649 8.14662C8.25802 8.14662 8.37895 8.28474 8.37895 8.5609C8.37895 9.14773 8.07673 9.63099 7.50258 10.0452C6.8982 10.4595 6.20319 10.6666 5.35706 10.6666C4.69225 10.6666 4.14826 10.494 3.69497 10.1143C3.24169 9.76908 3 9.32031 3 8.80251C3 8.31923 3.18132 7.76691 3.57417 7.07652C4.84336 4.93629 7.13992 3.17582 10.4036 1.72599C13.0628 0.552317 15.571 0 17.9583 0C20.5873 0 22.5818 0.897492 23.9416 2.72704C24.9388 4.03879 25.4223 5.62671 25.4223 7.42174C25.4223 9.14773 24.818 10.8392 23.579 12.4271C22.4911 13.8424 21.0709 14.9815 19.3484 15.9136C17.6864 16.8111 16.115 17.2254 14.6343 17.2254C13.6673 17.2254 13.0024 16.9837 12.67 16.4659C10.6755 22.1962 9.70858 26.0279 9.70858 27.9955L9.85964 29.2728C9.85964 29.5835 9.70859 29.7215 9.43663 29.7215C9.22509 29.7215 8.95312 29.6525 8.68115 29.4799C8.04656 29.2037 7.56306 28.6514 7.17021 27.7884C6.80759 26.9254 6.59605 25.9243 6.59605 24.7161C6.59605 23.4044 6.77737 22.0236 7.17021 20.5738C7.4724 19.4001 8.01627 17.7087 8.80196 15.5339L10.6151 10.6321C11.9145 7.24911 12.6397 5.07441 12.7606 4.03881C11.2195 4.52209 9.79923 5.17792 8.56025 5.93736C7.32128 6.69679 6.38452 7.52531 5.84058 8.35379C5.81036 8.38831 5.81033 8.4228 5.81033 8.49184C5.74989 8.56088 5.78008 8.5954 5.87073 8.5954ZM13.0327 15.3268C13.9695 15.1542 15.0271 14.7399 16.1452 14.1186C17.2935 13.4627 18.3209 12.7033 19.2275 11.8058C21.2219 9.90718 22.189 7.97408 22.189 6.04097C22.189 5.14345 21.8263 4.48754 21.1313 4.00426C20.406 3.52098 19.4088 3.27937 18.0792 3.27937C17.0517 3.27937 16.0847 3.34838 15.1782 3.52098C15.7826 4.14234 16.0847 4.83276 16.0847 5.59219C16.0847 6.17903 15.6012 7.87047 14.6644 10.6321L13.0327 15.3268Z" fill="#222222"/>
<path d="M33.192 15.2215C33.6608 15.2215 34.0849 15.3691 34.442 15.646C34.8214 15.9414 35 16.2551 35 16.6059C35 16.8274 34.8215 16.9381 34.4867 16.9381C33.6385 16.9196 32.4778 17.3996 31.0047 18.3779C29.8663 19.1162 28.5941 20.0945 27.2325 21.3312V21.8665C27.2325 23.9338 27.411 25.798 27.7459 27.4408C28.1476 29.2866 28.7057 30.5787 29.4646 31.2986C29.6431 31.4463 29.7324 31.5939 29.7324 31.7601C29.7324 31.9262 29.5985 32 29.3307 32C27.6343 32 26.295 30.8741 25.3129 28.6406C24.7549 27.3485 24.3978 25.8903 24.2193 24.2845C23.0586 25.5027 22.0988 26.6287 21.3622 27.6439C20.6257 28.6591 20.1793 29.4343 20.0677 29.9511C19.9561 30.2834 19.7328 30.468 19.398 30.468C18.8847 30.468 18.416 30.228 18.0365 29.7666C17.724 29.3974 17.5455 29.0282 17.5455 28.6591C17.5455 28.4929 17.5677 28.3268 17.6347 28.1238C17.8579 27.4593 18.5722 25.8719 19.7328 23.3616C20.8488 21.0728 21.6077 19.3746 22.0318 18.2486C22.4559 17.1227 22.6791 16.2367 22.6791 15.5906V15.443C22.6791 15.1476 22.813 15 23.0809 15C23.7505 15 24.2862 15.2953 24.688 15.886C24.9781 16.3105 25.1121 16.772 25.1121 17.2888C25.1121 17.8795 24.9335 18.6178 24.5987 19.5038C24.2416 20.3898 23.6389 21.6819 22.7461 23.3985C24.7549 21.2389 26.7861 19.3377 28.8842 17.7134C30.8931 16.0337 32.3439 15.2215 33.192 15.2215Z" fill="#AB7B60"/>
</g>
<defs>
<filter id="filter0_d_62_16" x="0" y="0" width="40" height="40" filterUnits="userSpaceOnUse" color-interpolation-filters="sRGB">
<feFlood flood-opacity="0" result="BackgroundImageFix"/>
<feColorMatrix in="SourceAlpha" type="matrix" values="0 0 0 0 0 0 0 0 0 0 0 0 0 0 0 0 0 0 127 0" result="hardAlpha"/>
<feOffset dx="1" dy="4"/>
<feGaussianBlur stdDeviation="2"/>
<feComposite in2="hardAlpha" operator="out"/>
<feColorMatrix type="matrix" values="0 0 0 0 0 0 0 0 0 0 0 0 0 0 0 0 0 0 0.3 0"/>
<feBlend mode="normal" in2="BackgroundImageFix" result="effect1_dropShadow_62_16"/>
<feBlend mode="normal" in="SourceGraphic" in2="effect1_dropShadow_62_16" result="shape"/>
</filter>
</defs>
</svg>
