<svg width="239" height="65" viewBox="0 0 239 65" fill="none" xmlns="http://www.w3.org/2000/svg">
<g filter="url(#filter0_d_56_45)">
<path d="M7.13427 11.7394C7.74354 11.7865 8.48345 11.6451 9.39736 11.3622C9.83255 11.2208 10.0936 11.1265 10.2677 11.1265C10.5723 11.1265 10.7465 11.3151 10.7465 11.6923C10.7465 12.4938 10.3112 13.1538 9.48435 13.7195C8.61396 14.2853 7.61305 14.5682 6.39451 14.5682C5.43708 14.5682 4.65365 14.3325 4.00086 13.8138C3.34807 13.3424 3 12.7295 3 12.0223C3 11.3622 3.26113 10.6079 3.82688 9.66494C5.6547 6.74187 8.96208 4.33746 13.6622 2.35732C17.4919 0.754342 21.104 0 24.542 0C28.3282 0 31.2006 1.22577 33.1589 3.72453C34.5951 5.51609 35.2913 7.68483 35.2913 10.1364C35.2913 12.4938 34.421 14.8039 32.6367 16.9726C31.07 18.9056 29.0246 20.4614 26.544 21.7344C24.1505 22.9602 21.8875 23.526 19.755 23.526C18.3624 23.526 17.4048 23.196 16.9261 22.4888C14.0539 30.3151 12.6613 35.5483 12.6613 38.2356L12.8789 39.9801C12.8789 40.4044 12.6613 40.5929 12.2697 40.5929C11.965 40.5929 11.5733 40.4987 11.1817 40.263C10.2678 39.8858 9.57145 39.1314 9.0057 37.9528C8.48347 36.7741 8.17882 35.4069 8.17882 33.7567C8.17882 31.9652 8.43995 30.0793 9.0057 28.0992C9.4409 26.4962 10.2241 24.1861 11.3557 21.2159L13.9668 14.521C15.8382 9.90067 16.8826 6.93051 17.0567 5.51611C14.8372 6.17616 12.7919 7.07189 11.0076 8.10911C9.22326 9.14633 7.87419 10.2779 7.09084 11.4094C7.04732 11.4566 7.04727 11.5037 7.04727 11.598C6.96024 11.6923 7.00371 11.7394 7.13427 11.7394ZM17.4485 20.9329C18.7976 20.6972 20.3208 20.1315 21.931 19.2828C23.5847 18.3871 25.0643 17.3498 26.3699 16.124C29.2422 13.531 30.6349 10.8908 30.6349 8.25061C30.6349 7.02481 30.1126 6.12897 29.1117 5.46892C28.0672 4.80887 26.631 4.47889 24.7161 4.47889C23.2365 4.47889 21.8439 4.57314 20.5383 4.80888C21.4087 5.65751 21.8439 6.60047 21.8439 7.63769C21.8439 8.43917 21.1475 10.7493 19.7984 14.521L17.4485 20.9329Z" fill="#222222"/>
<path d="M40.8175 30.315C39.9471 30.315 39.1637 30.1264 38.4674 29.7021C37.7711 29.2778 37.423 28.8064 37.423 28.2878C37.423 27.8163 37.7276 27.6276 38.3804 27.6276H38.5979C39.5554 27.6276 40.7304 26.6847 42.1666 24.846C43.4286 23.243 44.0379 21.8287 44.0379 20.6972C44.0379 20.2729 43.9508 20.0843 43.7767 20.0843C43.6897 20.0843 43.6026 20.1314 43.4721 20.1786C41.6007 21.1687 39.7294 23.2902 37.9016 26.5905C36.2914 29.5136 35.5081 31.9651 35.5081 34.0396V34.6054C35.5516 35.0768 35.6386 35.4068 35.7692 35.5483C35.8998 35.6897 36.1608 35.784 36.5525 35.784C37.684 35.784 38.8156 35.5483 39.86 35.124C40.9045 34.6525 42.2535 33.851 43.8637 32.6723C44.5601 32.1066 44.9953 31.8237 45.1694 31.8237C45.5176 31.8237 45.6916 32.1537 45.6916 32.8609C45.6916 34.5582 44.6471 36.2083 42.5146 37.7642C40.8609 38.99 39.2942 39.65 37.9016 39.65C35.2034 39.65 33.1145 38.7071 31.7219 36.8212C30.7645 35.4069 30.2421 33.7567 30.2421 31.8237C30.2421 29.655 31.0256 27.2977 32.6358 24.7518C34.1154 22.4888 35.8997 20.5557 38.0322 18.9056C40.1211 17.3026 41.9054 16.454 43.3415 16.454C44.9517 16.454 46.1703 17.0198 46.9971 18.1041C47.6935 18.9528 48.0417 20.0371 48.0417 21.2629C48.0417 22.0644 47.824 23.0073 47.4324 24.1389C46.9972 25.2704 46.475 26.2604 45.8222 27.1562C44.3425 29.2778 42.6888 30.315 40.8175 30.315Z" fill="#222222"/>
<path d="M58.53 17.9156C60.0097 18.8114 60.7931 19.66 60.7931 20.4615C60.7931 20.8387 60.619 21.2158 60.2273 21.593C58.4865 23.196 56.9634 25.129 55.6143 27.4863C54.3087 29.8436 53.6994 31.871 53.6994 33.6625C53.6994 34.6054 53.8735 35.3598 54.2652 35.9255C54.6133 36.4913 55.1356 36.7741 55.7448 36.7741C56.7458 36.7741 57.8337 36.2556 58.9652 35.2655C60.0967 34.2754 61.1412 32.861 62.1422 31.1166C63.7959 28.1464 64.6663 25.5533 64.6663 23.3846C64.6663 22.2059 64.3617 21.2159 63.7959 20.3201C63.1867 19.4715 62.4468 18.9057 61.4894 18.6699C61.0107 18.5756 60.7495 18.3399 60.7495 18.0099C60.7495 17.5384 61.0542 17.1141 61.62 16.7841C62.1857 16.4541 62.882 16.2655 63.7524 16.2655C65.4061 16.2655 66.7987 16.8784 67.9302 18.1513C69.0617 19.4243 69.6711 21.1216 69.6711 23.196C69.6711 25.5062 68.9747 28.005 67.5386 30.6452C66.1459 33.2854 64.4052 35.4541 62.2727 37.1985C60.0097 39.0844 57.7903 40.0272 55.6578 40.0272C53.3948 40.0272 51.654 39.0372 50.479 37.1042C49.5216 35.5484 49.0864 33.7096 49.0864 31.4938C49.0864 28.8536 49.8262 26.2134 51.2623 23.6203C52.4809 21.4516 53.9605 19.66 55.7448 18.2456C56.2235 17.7742 56.7457 17.5856 57.3115 17.5856C57.6161 17.5384 58.0513 17.6327 58.53 17.9156Z" fill="#222222"/>
<path d="M88.7766 16.8311C90.0822 16.8311 91.2137 17.5383 92.1711 18.9055C92.9545 20.1313 93.3897 21.5457 93.3897 23.243C93.3897 24.6574 92.9544 26.3546 92.1276 28.3819C91.3007 30.4092 90.2128 32.3422 88.9072 34.181C86.2525 37.8584 83.8154 39.6499 81.5959 39.6499C80.6385 39.6499 79.8987 39.3198 79.333 38.6126C78.7672 37.9055 78.419 37.0097 78.332 35.831C78.332 35.2181 78.4625 34.6524 78.7236 34.0866C78.9848 33.5209 79.2459 33.2852 79.5505 33.2852C79.6811 33.2852 79.8987 33.5208 80.1163 34.0394C80.595 35.0767 81.1172 35.6425 81.6829 35.6425C81.9441 35.6425 82.5098 35.0296 83.2931 33.8509C84.0765 32.6722 84.9034 31.2578 85.6868 29.6549C87.4711 26.166 88.3414 23.4316 88.3414 21.4986V21.2157C88.3414 20.8385 88.2545 20.6499 88.0369 20.6499C87.9498 20.6499 87.8627 20.6971 87.6886 20.8385C85.5997 22.1586 82.945 25.3645 79.7681 30.4563C77.0699 34.7938 75.0245 38.8484 73.6754 42.573C70.9772 50.0221 69.5845 54.3124 69.5845 55.3968C69.5845 56.434 69.1929 56.9998 68.366 56.9998C67.3651 56.9998 66.4512 56.434 65.7114 55.2553C65.1021 54.3595 64.8409 53.4166 64.8409 52.4266C64.8409 51.5779 65.1021 50.305 65.5808 48.6548C66.1031 47.0047 67.104 44.0345 68.6707 39.7913C70.8466 33.8509 72.3698 29.5135 73.1532 26.7318C73.9365 23.9502 74.3281 21.6871 74.3281 19.8484C74.3281 19.377 74.3282 18.9998 74.2847 18.7641C74.2412 18.6698 74.2412 18.5755 74.2412 18.434C74.2412 17.6325 74.5023 17.2554 75.068 17.2554C75.3727 17.2554 75.7644 17.3968 76.1996 17.6325C78.0274 18.6226 78.8978 20.5085 78.8978 23.3373C78.8978 24.1388 78.8107 25.1288 78.6367 26.4018C82.858 20.037 86.2525 16.8311 88.7766 16.8311Z" fill="#222222"/>
<path d="M106.619 5.18589C107.272 5.84594 107.62 6.60026 107.62 7.44889C107.62 7.73177 107.576 8.10899 107.446 8.53331L102.572 21.9229C100.483 27.9104 99.4384 31.965 99.4384 34.0866V34.558C99.4384 34.9352 99.6125 35.1239 100.004 35.1239C100.439 35.0767 101.049 34.841 101.832 34.3695C102.398 34.0866 102.746 33.898 102.876 33.898C103.268 33.898 103.442 34.228 103.442 34.9352C103.442 36.2553 102.92 37.3869 101.875 38.2826C101.049 38.9898 100.091 39.367 99.0032 39.4141C97.48 39.4141 96.3485 38.5655 95.6086 36.8682C94.9994 35.5481 94.7382 33.8509 94.7382 31.8236C94.7382 30.5035 94.8688 29.2777 95.0864 28.099C95.5216 25.7417 96.9142 21.3571 99.3513 14.9923C101.571 9.09905 102.659 5.75168 102.659 4.8559C102.659 4.14871 102.876 3.77148 103.268 3.77148C104.617 3.77148 105.705 4.24296 106.619 5.18589Z" fill="#222222"/>
<path d="M116.976 30.315C116.106 30.315 115.323 30.1264 114.626 29.7021C113.93 29.2778 113.582 28.8064 113.582 28.2878C113.582 27.8163 113.887 27.6276 114.539 27.6276H114.757C115.714 27.6276 116.889 26.6847 118.326 24.846C119.588 23.243 120.197 21.8287 120.197 20.6972C120.197 20.2729 120.11 20.0843 119.936 20.0843C119.849 20.0843 119.762 20.1314 119.631 20.1786C117.76 21.1687 115.888 23.2902 114.061 26.5905C112.45 29.5136 111.667 31.9651 111.667 34.0396V34.6054C111.711 35.0768 111.798 35.4068 111.928 35.5483C112.059 35.6897 112.32 35.784 112.711 35.784C113.843 35.784 114.975 35.5483 116.019 35.124C117.063 34.6525 118.412 33.851 120.023 32.6723C120.719 32.1066 121.154 31.8237 121.328 31.8237C121.677 31.8237 121.851 32.1537 121.851 32.8609C121.851 34.5582 120.806 36.2083 118.674 37.7642C117.02 38.99 115.453 39.65 114.061 39.65C111.362 39.65 109.274 38.7071 107.881 36.8212C106.923 35.4069 106.401 33.7567 106.401 31.8237C106.401 29.655 107.185 27.2977 108.795 24.7518C110.274 22.4888 112.059 20.5557 114.191 18.9056C116.28 17.3026 118.064 16.454 119.501 16.454C121.111 16.454 122.329 17.0198 123.156 18.1041C123.852 18.9528 124.201 20.0371 124.201 21.2629C124.201 22.0644 123.983 23.0073 123.591 24.1389C123.156 25.2704 122.634 26.2604 121.981 27.1562C120.458 29.2778 118.804 30.315 116.976 30.315Z" fill="#222222"/>
<path d="M131.861 40.1686C129.685 40.1686 127.857 39.5086 126.377 38.1885C125.159 37.057 124.549 35.6897 124.549 34.1339C124.549 33.1438 124.854 32.2481 125.463 31.4466C126.073 30.6451 126.769 30.2208 127.509 30.2208C128.162 30.2208 128.51 30.4565 128.51 30.9751L128.292 32.4366C128.292 33.6624 128.684 34.6526 129.511 35.5012C130.338 36.3498 131.338 36.7741 132.513 36.7741C134.037 36.7741 134.82 36.1141 134.82 34.8411C134.82 34.2754 134.646 33.6625 134.254 33.0496C133.906 32.4367 133.166 31.5408 132.122 30.3622C130.773 28.8064 129.815 27.5806 129.293 26.6377C128.51 25.2233 128.161 23.856 128.161 22.4888C128.161 20.5558 128.858 19.0471 130.207 17.9156C131.338 16.9726 132.775 16.5012 134.472 16.5012C136.256 16.5012 137.823 16.9726 139.172 17.9156C140.478 18.9056 141.174 20.1315 141.174 21.6402C141.174 22.3945 140.913 23.1017 140.347 23.7617C139.825 24.4218 139.216 24.7518 138.606 24.7518C138.171 24.7518 137.997 24.2804 137.997 23.3374C137.997 22.4416 137.649 21.6401 136.909 20.9329C136.169 20.2257 135.342 19.8957 134.472 19.8957C134.167 19.8957 133.906 20.0371 133.645 20.2729C133.384 20.5086 133.297 20.8858 133.297 21.3101C133.297 22.3473 134.167 23.8089 135.865 25.7419C137.17 27.2977 138.084 28.4764 138.519 29.3722C139.259 30.7394 139.607 32.1066 139.607 33.521C139.607 35.5954 138.824 37.2456 137.214 38.5186C135.777 39.6029 133.993 40.1686 131.861 40.1686Z" fill="#222222"/>
<path d="M182.168 0.848814C183.082 0.848814 183.909 1.22596 184.605 1.93316C185.345 2.6875 185.693 3.48901 185.693 4.38479C185.693 4.95055 185.345 5.23339 184.692 5.23339C183.039 5.18624 180.776 6.41212 177.903 8.91087C175.684 10.7967 173.203 13.2954 170.549 16.4542V17.8215C170.549 23.1019 170.897 27.8637 171.549 32.0597C172.333 36.7743 173.421 40.0746 174.901 41.9133C175.249 42.2905 175.423 42.6677 175.423 43.092C175.423 43.5163 175.162 43.7048 174.639 43.7048C171.332 43.7048 168.721 40.8289 166.806 35.1242C165.718 31.824 165.022 28.0994 164.673 23.9977C162.41 27.1094 160.539 29.9852 159.103 32.5783C157.667 35.1713 156.797 37.1515 156.579 38.4716C156.361 39.3202 155.926 39.7917 155.273 39.7917C154.272 39.7917 153.358 39.1788 152.619 38.0002C152.009 37.0572 151.661 36.1143 151.661 35.1714C151.661 34.747 151.705 34.3228 151.835 33.8041C152.27 32.1069 153.663 28.0523 155.926 21.6404C158.102 15.7942 159.582 11.4567 160.409 8.58081C161.235 5.70489 161.671 3.44185 161.671 1.79173V1.41455C161.671 0.660206 161.932 0.283081 162.454 0.283081C163.76 0.283081 164.804 1.0374 165.587 2.54609C166.153 3.63045 166.414 4.80908 166.414 6.12918C166.414 7.63787 166.066 9.52378 165.413 11.7868C164.717 14.0498 163.542 17.35 161.801 21.7346C165.718 16.2185 169.678 11.3625 173.769 7.2136C177.686 2.92328 180.514 0.848814 182.168 0.848814Z" fill="#AB7B60"/>
<path d="M197.139 20.7444C197.139 21.1687 197.052 21.4988 196.835 21.7816C196.617 22.0645 196.4 22.2059 196.138 22.2059C195.877 22.2059 195.703 22.0645 195.66 21.8288C195.399 20.9801 194.702 20.5087 193.571 20.5087C192.613 20.5087 191.525 20.9802 190.394 21.8759C189.262 22.8189 188.174 24.0918 187.173 25.6948C185.346 28.6179 184.345 31.4938 184.258 34.2283C184.258 34.9355 184.388 35.3126 184.606 35.3126C186.085 35.3126 188 33.6154 190.35 30.268C192.048 27.9107 193.223 25.8362 193.919 24.0918C194.137 23.4317 194.572 23.1488 195.224 23.1488C196.095 23.1488 196.922 23.4789 197.662 24.0918C198.401 24.7047 198.793 25.3647 198.793 26.1191C198.793 26.4491 198.706 26.7792 198.576 27.0149C197.27 30.5037 196.661 33.191 196.661 35.1712C196.661 35.5012 196.835 35.6898 197.139 35.6898C197.27 35.6898 197.487 35.6427 197.836 35.5012C197.879 35.4541 197.923 35.454 198.01 35.454C198.271 35.454 198.358 35.7369 198.358 36.2555C198.358 37.1042 198.053 37.9057 197.444 38.5657C196.835 39.2258 196.138 39.603 195.399 39.603C194.267 39.603 193.44 38.9429 192.874 37.6228C192.439 36.5856 192.265 35.2183 192.265 33.5682V32.7667C188.871 37.3399 186.085 39.603 183.91 39.603C182.517 39.603 181.342 38.8486 180.428 37.3399C179.645 36.0198 179.209 34.3697 179.209 32.3424C179.209 30.0322 179.862 27.6749 181.124 25.2233C182.386 22.7717 183.997 20.7444 185.911 19.1886C188.044 17.5384 190.176 16.6898 192.352 16.6898C194.006 16.6898 195.311 17.1141 196.182 18.0099C196.791 18.67 197.139 19.6129 197.139 20.7444Z" fill="#AB7B60"/>
<path d="M210.194 21.4987C212.414 18.1985 214.329 16.5012 215.939 16.5012C216.548 16.5012 217.071 16.8312 217.506 17.4441C217.941 18.057 218.202 18.8585 218.289 19.8486C218.289 20.7444 218.028 21.2159 217.549 21.2159L216.026 20.9801C214.503 21.0273 212.806 22.7245 210.891 26.119C209.15 29.2779 207.496 33.5682 205.93 38.8957C205.799 39.4615 205.407 39.7443 204.798 39.7443C203.928 39.7443 203.101 39.3672 202.361 38.66C201.578 37.9528 201.229 37.1513 201.229 36.3498C201.229 35.784 201.708 34.1811 202.709 31.4937C204.537 26.5434 205.407 23.0074 205.407 20.7915C205.407 20.4615 205.32 19.8957 205.146 19.1414C205.016 18.6228 204.929 18.2928 204.929 18.1042C204.929 17.5856 205.364 17.3027 206.234 17.3027C207.061 17.3027 207.844 17.6798 208.584 18.4342C209.324 19.2357 209.846 20.2258 210.194 21.4987Z" fill="#AB7B60"/>
<path d="M222.032 17.8216L222.511 16.5015C224.556 11.0797 225.557 7.96799 225.557 7.21364V7.11933C225.557 6.36499 225.949 5.98779 226.689 5.98779C227.603 5.98779 228.386 6.4121 229.126 7.30789C229.822 8.15652 230.214 9.14664 230.214 10.231C230.214 11.0796 229.909 12.3526 229.256 14.097L227.951 17.3972L233.434 16.0771C233.826 16.0771 234 16.2186 234 16.5486C234 17.2087 233.26 18.0573 231.781 19.0002C230.301 19.9432 228.56 20.6975 226.602 21.2632C224.295 27.7694 223.077 32.5784 222.946 35.7843C222.946 36.0672 223.077 36.2557 223.381 36.2557C223.991 36.1615 224.861 35.69 226.079 34.7942C226.515 34.4642 226.819 34.2756 226.906 34.2756C227.254 34.2756 227.429 34.6528 227.429 35.4071C227.429 36.5858 226.776 37.6701 225.514 38.6131C224.469 39.4145 223.468 39.7917 222.554 39.7917C221.205 39.7917 220.117 39.0846 219.378 37.7173C218.638 36.4915 218.29 34.8414 218.29 32.8141C218.29 31.3997 218.464 29.9381 218.768 28.5237C219.073 27.1094 219.726 24.8464 220.77 21.7819C219.247 21.3104 218.333 20.3675 218.115 18.8588C218.072 18.7645 218.072 18.6231 218.072 18.4816C218.072 17.7744 218.42 17.3972 219.073 17.3972L222.032 17.8216Z" fill="#AB7B60"/>
</g>
<defs>
<filter id="filter0_d_56_45" x="0" y="0" width="239" height="64.9998" filterUnits="userSpaceOnUse" color-interpolation-filters="sRGB">
<feFlood flood-opacity="0" result="BackgroundImageFix"/>
<feColorMatrix in="SourceAlpha" type="matrix" values="0 0 0 0 0 0 0 0 0 0 0 0 0 0 0 0 0 0 127 0" result="hardAlpha"/>
<feOffset dx="1" dy="4"/>
<feGaussianBlur stdDeviation="2"/>
<feComposite in2="hardAlpha" operator="out"/>
<feColorMatrix type="matrix" values="0 0 0 0 0 0 0 0 0 0 0 0 0 0 0 0 0 0 0.3 0"/>
<feBlend mode="normal" in2="BackgroundImageFix" result="effect1_dropShadow_56_45"/>
<feBlend mode="normal" in="SourceGraphic" in2="effect1_dropShadow_56_45" result="shape"/>
</filter>
</defs>
</svg>
